<svg xmlns="http://www.w3.org/2000/svg" viewBox="0 0 52.13 66.78"><title>logo-lmr</title><path d="M52.12,39.07v.18c0,15.2-11.68,27.51-26,27.51S0,54.39,0,39.19V0H52.12Z" fill="#004a8f"/><path d="M19.7,49.35c-.06-.12-.18-.24-.23-.35s.34,0,.4-.12A.7.7,0,0,1,19.7,49.35Zm4.3-4c-.12-.29-.41-.58-.52-.87a8.77,8.77,0,0,1-.93,1S23.3,45.4,24,45.4Zm-5.58,4.41a2,2,0,0,1,.23-.46c-.17,0-.35.11-.46,0A.7.7,0,0,0,18.42,49.81Zm4-4.18c-.17.12-.29.23-.47.35a3.25,3.25,0,0,0,1.52,0C23.18,45.86,22.72,45.75,22.43,45.63Zm11.68,1.63a1.69,1.69,0,0,0-.29-.53,2.35,2.35,0,0,0-.64.29A5.3,5.3,0,0,1,34.11,47.26ZM12.84,41.4c.12,0,.29.17.35.23a1,1,0,0,1,.06-.41Zm.47,1.5a.66.66,0,0,0-.18.47,1.08,1.08,0,0,1,.47-.12A.42.42,0,0,1,13.31,42.9Zm15.4,5a1.42,1.42,0,0,0-.41.47c.17,0,.29.12.52.17A2.77,2.77,0,0,1,28.71,47.89Zm-12,1.46a1.1,1.1,0,0,1-.35-.24,1.27,1.27,0,0,0-.06.47A.79.79,0,0,1,16.74,49.35ZM16,48c-.06,0-.12-.52-.12-.52a.92.92,0,0,0-.35.46A1.27,1.27,0,0,1,16,48ZM33.3,41.86a1.8,1.8,0,0,0,.75,1c-.17-.53-.35-1-.52-1.51a2.09,2.09,0,0,0-1.45-1.16A11.59,11.59,0,0,1,33.3,41.86Zm-6.51.58c.75-.12,1.33-.7.52-1.45A2,2,0,0,1,26.79,42.44Zm-.93.35c.75-.29,1.51-.87.64-1.74A2.72,2.72,0,0,1,25.86,42.79ZM25,43c.53,0,1.34-.87.59-1.51A2,2,0,0,1,25,43Zm14.24,2.79a.92.92,0,0,0,.64.46,1.35,1.35,0,0,1-.64.35c.06.35.23.81.29,1.22s-.11.87-.87.87a1,1,0,0,1-.06.7.34.34,0,0,1-.41.11.32.32,0,0,1-.11-.23,1.41,1.41,0,0,1,.06-.7c-.53.18-.41.7-.64.93a.44.44,0,0,1-.58.12c-.06-.06-.12-.06-.12-.12-.23-.29-.12-.87.58-.87-.46-.17-.93-.29-1.1.29a.49.49,0,0,1-.41-.4c.06-1,1.57.05,1.86-.7a1.32,1.32,0,0,0-.23-1.22,2.83,2.83,0,0,0-1.28-.7A3.61,3.61,0,0,1,34,44.35a18,18,0,0,1-1-1.85,2.11,2.11,0,0,0-1.92-1.22,5.46,5.46,0,0,0-1.92.7l-2.85,1.45a1.42,1.42,0,0,0,.41.4,3,3,0,0,1-1-.11,2.78,2.78,0,0,0,.12.69,5.37,5.37,0,0,1-2.38-.06,2.44,2.44,0,0,0,.29-.52,5.38,5.38,0,0,0,4-1.74,8.61,8.61,0,0,1-3.9,1.45,2.37,2.37,0,0,0-.11-.87c-.24,1.92-2.44,3.19-3.78,4.41a3.23,3.23,0,0,0,1.68-.93,5.35,5.35,0,0,0,.59.7,1.13,1.13,0,0,1-.76-.12c-.58.35-1.16.7-1.8,1.05.29.75-.23,1.16-.82.52-.11.29-.29.87-.75.81s-.06-.93.12-1.16a1.06,1.06,0,0,0-.82,1c-.81.41-1.22-.23-.93-.7.12-.23.47-.23.87-.4-.4-.06-.81-.18-1.16.17-.29-.7.41-.7,1-.58.81.12,1.22-.29,1.68-.87l.93-1.22A3.24,3.24,0,0,0,21.27,43a1.9,1.9,0,0,0,1.16.06,2.4,2.4,0,0,1-.17-1.57,1.12,1.12,0,0,0,.75.7c.23-.87,1-1.22,1.4-2l.23.64a4.48,4.48,0,0,0,1.92-2.21,1.28,1.28,0,0,0,1,.52v-.52a2.08,2.08,0,0,0,1.17.29l-.35-.52a28.51,28.51,0,0,1,3.19-.23,9.36,9.36,0,0,1,4.36.81c.7.35,2.56.93,2.91-.29.17-.7-.35-1.05-.88-1.39-.69-.35-1.39-.7-2-1.11.06-.11.12-.17.12-.29a9.45,9.45,0,0,1,3,1.69,1.31,1.31,0,0,1-.06,1.74,3.06,3.06,0,0,1-2.55.46,2,2,0,0,1,1,1.16,3.88,3.88,0,0,1-.75-.11,3,3,0,0,0-.47-.76l.06.29a10.87,10.87,0,0,1,.12,1.39c0,.64.06,1.28.11,1.92a2.06,2.06,0,0,0,1.28,1.62,2,2,0,0,1,.64.24c.18.11.18.23.18.4a1.62,1.62,0,0,0,.46,1.8A2.94,2.94,0,0,1,38.82,46a.72.72,0,0,0-.41-.87c-.23-.06-.47-.17-.7-.23-.81-.35-.93-1.05-1-1.8-.06-.41,0-.87-.06-1.28a3.69,3.69,0,0,0-.06-.81,4.81,4.81,0,0,0,.81.75h-.64c.47.35.7.64,1.05.93a1.21,1.21,0,0,1-.64-.23,2.42,2.42,0,0,0,.47,1.91c.34.41.75.41,1.27.47s.18.7,1,.7A.75.75,0,0,1,39.28,45.75Zm-1.1,4.06.35.35a1.34,1.34,0,0,1,.11-.47C38.58,49.81,38.41,49.87,38.18,49.81Zm1.28-.58a.65.65,0,0,0,.11-.46.51.51,0,0,1-.35.17Zm-25.11-9c-.06-.11-.35-.17-.35-.17s.06.29.12.41C14.06,40.35,14.24,40.29,14.35,40.23Zm22.26,9.52a.88.88,0,0,0,.11.52c.12-.17.18-.17.35-.23A.45.45,0,0,1,36.61,49.75Zm-5.93.18a1.18,1.18,0,0,0,.29.58c.12-.18.18-.35.29-.53A.7.7,0,0,1,30.68,49.93Zm1.51-.64a2,2,0,0,1,.29.46c.18-.23.12-.23.23-.46A.77.77,0,0,1,32.19,49.29Zm-2.5.46c-.29-.06-.4-.11-.46-.29a1.94,1.94,0,0,0-.06.58C29.4,49.93,29.4,49.81,29.69,49.75Zm6-1c-.18.11-.18.29-.23.4.11-.06.29,0,.4,0C35.79,49.06,35.74,48.88,35.68,48.77Zm-2.5-4.65c-1.28.53-.76,1.69.29,1.92C32.83,45.4,32.6,45.11,33.18,44.12Zm.41,3.66a1.57,1.57,0,0,0-1.34.23c.81.64.35,1.39-.58.87-.12.7-.58.93-.81.81-.59-.4-.06-.75.17-1a.86.86,0,0,0-.81.58c-.59.4-1-.18-.88-.52.12-.18.35-.29.82-.24-.53-.4-.7-.35-1.05-.05a.47.47,0,0,1,0-.64.56.56,0,0,1,.82,0c.58.29.93.29,1.27-.24a6.18,6.18,0,0,0,.47-.87c.17-.52-.12-.75-.58-1a2.52,2.52,0,0,1-1.28-1.4,2,2,0,0,1,.87-1.5,3.67,3.67,0,0,0,.7-.93c1,.11,1.57,1.45,2,2.55-.46.81-.17,1.05.41,1.51.29.23.29.35-.06.52a3.1,3.1,0,0,0-2,2.21,8,8,0,0,1,1.33-1.51l.18.17A.81.81,0,0,1,33.59,47.78ZM15.92,43.6a8.57,8.57,0,0,0,.58.7,7,7,0,0,1-.11-1.11.79.79,0,0,1-.58-.4,4.81,4.81,0,0,0,2.84,0c.06-.52-.06-1,0-1.63a8.3,8.3,0,0,1-3.14.82c-.17-.06-.29-.06-.4-.24a3.08,3.08,0,0,1-.23-.75,1.87,1.87,0,0,0-.24-.52c-.11-.06-.58.11-.46.23a1.67,1.67,0,0,1,.41,1,1.87,1.87,0,0,0-.64-.53c-.59-.23-.59.47-.47.82a1.3,1.3,0,0,1,.93.05c-.81.12-1.16,1-.46,1a2,2,0,0,0,.81-.29C14.88,43.77,15.05,44,15.92,43.6Zm12-8.12c-.06.63-.17,1.62.58,1.85a3.58,3.58,0,0,1-.29-1.56C28.07,35.71,28,35.53,27.89,35.48Zm-8.31,4a3.17,3.17,0,0,0-.29.75,1.27,1.27,0,0,0,.64,0,3.46,3.46,0,0,0-.17,1.1c.93.12,1.51-.81,1.74-1.63a3.1,3.1,0,0,1-1.34,1.16,4.8,4.8,0,0,1,.64-1.45,4.5,4.5,0,0,1-.93.47,4.18,4.18,0,0,1,1.34-1.51C20.28,38.44,20.11,38.67,19.58,39.48Zm2.27.93a2.45,2.45,0,0,0-1.34,1.91,4.65,4.65,0,0,1-.46-.92c-.18.87-.06,1.21.69,1.5A4.12,4.12,0,0,1,21.85,40.41Zm2-3.66a2.92,2.92,0,0,0-1.62,2.61,7.2,7.2,0,0,0,1.74-1.27l-.17.64A2.53,2.53,0,0,0,25,38.09a3.23,3.23,0,0,1,0,1.45c.64-.93.46-1.22.23-2.32-.29.29-.47.69-.93.87l.35-1.51a10.08,10.08,0,0,1-2.09,2A8.82,8.82,0,0,1,23.82,36.75Zm.47-2a2.89,2.89,0,0,0-1.16,1.92,3.13,3.13,0,0,0,2.15-2.73,4.24,4.24,0,0,1-1.46,1.86C23.94,35.42,24.17,35.07,24.29,34.72Zm.81-3a1.84,1.84,0,0,1-.64,2c.53-.12.87-.29,1-.82A1.4,1.4,0,0,0,25.1,31.7Zm1.63-1.45a1.51,1.51,0,0,0-1.1,1.11,2.12,2.12,0,0,1,.87-.58,4.1,4.1,0,0,1,.06,1.16A1.64,1.64,0,0,0,26.73,30.25Zm-.47,2.44a2.87,2.87,0,0,1-.4,2C26.85,34.37,26.85,33.39,26.26,32.69ZM27,34.32a4.7,4.7,0,0,0-1.34,2.14A4.43,4.43,0,0,1,25.74,35a2.11,2.11,0,0,0-.17,2.38C26.09,36.4,26.5,35.3,27,34.32Zm-4.36-.53c.58.35,1.57,0,.82-1C23.65,33.56,23.36,33.74,22.66,33.79Zm.64-2.55c0,.17.06.35.18.35s.17-.12.17-.35-.06-.35-.17-.35A.41.41,0,0,0,23.3,31.24Zm-3.83,9.23c-.35.05-.76.17-1-.06a2.93,2.93,0,0,0,.87-1.22,3.32,3.32,0,0,1,.93-1.39c.35-.18.7-.29,1.05-.47-.12.24-.47.41-.64.58,1.39.53,1.92.06,2.09-1.1a1.84,1.84,0,0,1-1.22.93,1.73,1.73,0,0,0,.35-1.16c-.52.35-1.45,1.16-2.09.81.11,0,.4-.23.52-.29a4.76,4.76,0,0,1,1.1-.7,6.71,6.71,0,0,1,1.51-.23,5,5,0,0,1-1.33-.46,2.58,2.58,0,0,0,1.57-1c1.1-.11,1.45-.69,1.45-1.8-.17.52-.23.87-.64,1.16a2.12,2.12,0,0,1-1.05.29c-.58.12-1.22.12-1-.69v-.06a4.85,4.85,0,0,0,.93.06c.46-.06.93-.18.81-.76a.58.58,0,0,0-.58-.4c-.35,0-.64.11-1,.17a.77.77,0,0,1-.35-.81c.12-.29.47-.41.7-.52-.52-.18-.7.23-.93.23-.06-.06-.06-.06-.06-.12a2.43,2.43,0,0,1,.82-.52,2.49,2.49,0,0,1,.92-.17,1,1,0,0,0,.41-.12.68.68,0,0,0,.58.52,1.51,1.51,0,0,0-.52.93,5,5,0,0,1,1.16-1c.06.46-.52.69-.81.81.93.4,1.1-.29.93-.87a3.38,3.38,0,0,1-1.28-.41,2,2,0,0,1,.58-.29,2.49,2.49,0,0,1,1.45.12,1.84,1.84,0,0,0-.05.52,2.06,2.06,0,0,1,1.45-.81A3,3,0,0,1,27,31.88c.23-.18.41-.29.46-.58a2.25,2.25,0,0,1,.7,1,1.53,1.53,0,0,0,.76.7c-.58.46-1.28-.52-1.51-.93.05.76.23,1.16.93,1.39a6.24,6.24,0,0,0,.93,2.27c-1.17-.12-1.28-1.39-1.92-2a5.39,5.39,0,0,1-.58,1.85,1.44,1.44,0,0,0,.81-.93c.06.12.12.29.18.41A4,4,0,0,1,27,36.81a1.91,1.91,0,0,1-.11-1,1.8,1.8,0,0,0-.06,1.63,4.23,4.23,0,0,0,.87-.93l.29.64a3.92,3.92,0,0,0,.23,1.16,2.9,2.9,0,0,1-.58-.58c-.06.29-.17.52-.23.81a2.43,2.43,0,0,1-.7-1,6.64,6.64,0,0,1-.64,1.5,3.29,3.29,0,0,1-1,1,16.12,16.12,0,0,0-.63-1.51v.23a3.72,3.72,0,0,0-.76.58,2,2,0,0,1,.29-.81c-.87.52-.7,1.1-.52,1.91.29-.52.64-1,1-1.56a2.62,2.62,0,0,1-.53,1.45,3.8,3.8,0,0,0-.87,1c-.23-.23-.41-.58-.64-.87a2.58,2.58,0,0,0-.23,2,2,2,0,0,1-.93-.41,3.88,3.88,0,0,1-.87,2.44v-.53c.11-.69.17-1.1-.47-1.56a1.71,1.71,0,0,1-.17,1.74,4,4,0,0,0-.12-1.86l-.52.29a4.5,4.5,0,0,1,0-1.27A4.37,4.37,0,0,1,19.47,40.47Zm13.59-4.7a3.85,3.85,0,0,1,.82.11,1.27,1.27,0,0,1,.4-.4l-.17-.18A1.08,1.08,0,0,0,33.06,35.77Zm-11-2.5c.06-.12.06-.23.18-.35a.36.36,0,0,1-.35,0Zm8-.06a7.06,7.06,0,0,0,3.37,1.92l.41-.18c-.29-.05-.52-.23-.81-.29a7.56,7.56,0,0,1-1.92-1,2.46,2.46,0,0,1-1-1,1,1,0,0,1,.23-1.33.9.9,0,0,1,1-.06c.06-.06.12-.17.18-.23C29.81,30.31,29.05,32.23,30,33.21Zm5.18,1.92a1,1,0,0,1-.53-1c-.52.23-.52.81.12,1.22l.7.29c-.24,0-.47.06-.7.06-.41.06-.87.52-.52,1,.05-.75,1.1-.29,1.45-.75C35.85,35.59,35.33,35.3,35.16,35.13ZM18.59,43.25a3.76,3.76,0,0,1-1.16.06,9.1,9.1,0,0,0,1.05.41A1.6,1.6,0,0,1,18.59,43.25Zm-3.48.87c-.23-.06-.23-.06-.29-.23a.54.54,0,0,0,.06.52C14.93,44.18,15,44.24,15.11,44.12Zm4.12-.29a1.59,1.59,0,0,0,0-.75l-.69.64A3.3,3.3,0,0,0,19.23,43.83Zm-2-.46-.76-.12a1.54,1.54,0,0,0,.87.93v-.12A3.3,3.3,0,0,1,17.26,43.37Zm14.87-12.3a1,1,0,0,0-.46.4c-.06.29.06.64-.06.93.35-.06.52-.58.64-.87a2.44,2.44,0,0,0,.58,1.68A9.36,9.36,0,0,0,32.54,32a3.72,3.72,0,0,0,1.74,1.22v-.06A7,7,0,0,0,33,31.88c.46.17,1.22.52,1.74.11a3.6,3.6,0,0,1-1.28-.58C33,31.12,32.66,30.83,32.13,31.07ZM37,16.73V19.4h3.37V18H39.8V16.73Zm5.06,25.71a22.65,22.65,0,0,1,.23,2.84h2.79L45,42.44ZM34.4,17.14H32.89v2.32H34.4ZM36,9.83v3.42h9.3V9.83H43.58v2H41.43v-2H39.75v2H37.6v-2ZM8.6,26.42h5.17V23.7h-5ZM44.22,13.71H37v2.67h2.85V14.64h1.51v1.74h2.85ZM12.84,36.17H8.31L8.25,38.9h3.66A14.65,14.65,0,0,1,12.84,36.17ZM8.08,45.28h2.79v-.11a19.46,19.46,0,0,1,.29-2.73h-3Zm32.71,3.89h5V45.69H40.91Zm-33.47,0h5.06l-.18-3.48H7.26v3.48Zm12.55-32H18.36v2.32h1.51Zm25,19H40.38a14.65,14.65,0,0,1,.93,2.73h3.61Zm-3,3.14h-.41c.18.58.29,1.16.41,1.74ZM41.37,18h-.58V19.4h3.37V16.73H41.31ZM21.67,6.34V9.77h9.82V6.34H29.75V8.43H27.48v-2h-1.8v2H23.42v-2H21.67ZM13.25,18h-.58V19.4H16V16.73H13.19Zm32.13,2.55.23-.75h-38l.23.75ZM8.89,16.73V19.4h3.37V18h-.58V16.73Zm7.15-3H8.89v2.67h2.85V14.64h1.51v1.74H16.1V13.71ZM7.79,9.83v3.48h9.29V9.88H15.46v2H13.31v-2H11.62v2H9.47v-2H7.79ZM22.6,19.46h3.72V16.73H22.6Zm8-2.73H26.73v2.73h3.83ZM29.4,13.31h-2v1.62H25.86V13.31h-2v3H29.4Zm1.16,0h-.75v3h.75Zm0-3.08H26.79v1.34h.58V12.9h3.19Zm-8,6.1h.76v-3H22.6Zm3.2-4.76h.58V10.23H22.6V12.9h3.2Zm-14,27.74h-.47v2C11.45,40.64,11.62,40,11.8,39.31Zm30-12.48H36.49v2.73h5.35ZM39.45,29.9v2.73h5.29l-.06-2.73Zm5.41,5.87L44.74,33H42.19v2.73ZM42.24,21v2.32h2.27L44.45,21Zm-6.16,8.59V26.83l-3.48.06a28.86,28.86,0,0,1,3.31,2.67Zm3-5.86H33.18v2.72h5.87Zm.4,2.72h5.18l-.06-2.72H39.51v2.72Zm2.79.41v2.73h2.44l0-2.73Zm-.4,8.94V33H38.76a25.45,25.45,0,0,1,1.45,2.73ZM45,42,45,39.31H42.24V42ZM36.08,21H30.39v2.32h5.69ZM22.49,26.83a20.48,20.48,0,0,1,4.12-1.68,23,23,0,0,1,11.68,9.28,23.78,23.78,0,0,1,3,10.85h.64c-.06-1-.12-2-.24-2.9a21.49,21.49,0,0,0-8.13-14.33,24.83,24.83,0,0,0-7-3.6,22.45,22.45,0,0,0-11.39,8.18l-.29.41a24.62,24.62,0,0,0-3.61,12.24H12a23.62,23.62,0,0,1,3.89-12.42A20.68,20.68,0,0,1,22.49,26.83Zm16,5.8h.58V29.9H36.32C36.38,30,37.54,31.36,38.47,32.63Zm-2-9.34h5.35V21H36.49ZM16.79,29.9H14.12v2.73h.52A34.32,34.32,0,0,1,16.79,29.9ZM8.31,35.77h2.61V33H8.37Zm8.37-8.94H11.33v2.73h5.35Zm-8.2,2.73h2.44V26.83H8.54ZM16.68,21H11.33v2.32h5.35ZM10.92,39.31H8.19l0,2.72h2.78Zm2.79-9.41H8.48l-.05,2.73h5.34V29.9ZM22.78,21h-5.7v2.32h5.7Zm-2.21,5.86H17.08v2.73h.12A16.66,16.66,0,0,1,20.57,26.83Zm2.61-3.54H30V21h-6.8ZM14.41,33H11.33v2.73H13C13.42,34.84,13.89,33.91,14.41,33Zm12.15-9a29.57,29.57,0,0,1,5.34,2.43h.87V23.7H20.4v2.72h.81A29.35,29.35,0,0,1,26.56,24ZM8.72,21l-.06,2.32h2.26V21ZM20,23.7H14.12v2.72H20Z" fill="#fec10d"/></svg>