<svg xmlns="http://www.w3.org/2000/svg" width="148" height="69" fill="none"><path fill="#004A8F" d="M52.1225 40.5063v.1741c0 15.2044-11.6796 27.5072-26.0322 27.5072C11.7377 68.1876 0 55.8268 0 40.6224V1.45081h52.1225V40.5063z"/><path fill="#FEC10D" d="M19.6985 50.778c-.0582-.1161-.1744-.2322-.2325-.3482.0581 0 .3487 0 .4068-.1161 0 .1741-.0581.3482-.1743.4643zm4.2999-3.9462c-.1162-.2902-.4067-.5803-.523-.8705-.2905.3482-.581.6964-.9297.9865 0 .0581.7554-.116 1.4527-.116zm-5.5783 4.4104c.0581-.1741.1162-.2901.2324-.4642-.1743.058-.3486.116-.4648 0 0 .1741.1162.3481.2324.4642zm4.0094-4.1783c-.1743.1161-.2905.2321-.4649.3482.523.1161.9879.1161 1.5108 0-.2905-.1161-.7554-.2321-1.0459-.3482zm11.6796 1.6249c-.0581-.1741-.1743-.4062-.2905-.5223-.2324.058-.4649.1741-.6392.2902.2905.058.6392.116.9297.2321zm-21.2673-5.8612c.1162 0 .2905.1741.3486.2321 0-.1161 0-.2902.0581-.4062-.1162.058-.2905.116-.4067.1741zm.4648 1.5088c-.1162.1161-.1743.2902-.1743.4643.1162-.0581.2905-.1161.4649-.1161-.1744-.058-.2325-.1741-.2906-.3482zm15.3985 4.9908c-.1743.116-.2905.2901-.4067.4642.1743 0 .2905.1161.5229.1741-.1162-.2321-.0581-.4642-.1162-.6383zM16.735 50.778c-.1163-.0581-.2325-.1161-.3487-.2322-.0581.1741-.0581.2902-.0581.4643.1162-.1161.2324-.1741.4068-.2321zm-.6973-1.3348c-.0581 0-.1162-.5223-.1162-.5223-.1744.1161-.2906.2902-.3487.4643.1743 0 .2905 0 .4649.058zm17.2579-6.1514c.1162.4063.4068.7544.7554.9866-.1743-.5223-.3486-.9866-.5229-1.5089-.2906-.5803-.8136-1.0445-1.4527-1.1606.4648.5223.8716 1.1026 1.2202 1.6829zm-6.508.5804c.7554-.1161 1.3364-.6964.5229-1.4508.0582.5222-.1743 1.0445-.5229 1.4508zm-.9297.3481c.7554-.2901 1.5107-.8704.6391-1.7409 0 .6383-.2324 1.2767-.6391 1.7409zm-.8136.1741c.523 0 1.3365-.8704.5811-1.5088 0 .5803-.1743 1.1026-.5811 1.5088zM39.2807 47.18c.1162.2321.3486.4062.6392.4642-.1743.1741-.4068.2902-.6392.3482.0581.3482.2324.8125.2905 1.2187.0581.4062-.1162.8705-.8716.8705.0581.2321.0581.4642-.0581.6964-.0581.116-.2324.174-.4067.116-.0581-.058-.1162-.116-.1162-.2321-.0582-.2321-.0001-.4643.0581-.6964-.523.1741-.4068.6964-.6392.9285-.1162.1741-.3487.2321-.5811.1161-.0581-.058-.1162-.0581-.1162-.1161-.2324-.2901-.1162-.8705.5811-.8705-.4649-.1741-.9298-.2901-1.1041.2902-.2324-.058-.3486-.1741-.4067-.4062.0581-1.0446 1.5689.058 1.8594-.6964.1162-.4062.0581-.8705-.2324-1.2187-.3487-.3482-.8135-.5803-1.2784-.6964-.9297-.1741-1.7432-.7544-2.2662-1.5088-.3486-.5803-.6973-1.2187-.9878-1.857-.3487-.7544-1.1041-1.2187-1.9176-1.2187-.6973.1161-1.3364.3482-1.9175.6964l-2.8473 1.4508c.1162.1741.2324.2902.4068.4062-.3487 0-.6392 0-.9879-.116 0 .2321.0581.4642.1163.6963-.2325.0581-1.9176.2322-2.3825-.058.1163-.1741.2325-.3482.2906-.5223 1.3365 0 3.254-.6383 4.0094-1.7409-1.1621.8124-2.4986 1.2767-3.8932 1.4508 0-.2902 0-.5804-.1162-.8705-.2324 1.915-2.4405 3.1917-3.777 4.4104.5811 0 1.1621-.5223 1.6851-.9285.1743.2321.3487.4643.5811.6964-.2324.058-.523 0-.7554-.1161-.5811.3482-1.1622.6964-1.8013 1.0446.2905.7544-.2325 1.1606-.8136.5223-.1162.2901-.2905.8705-.7554.8124-.581-.116-.0581-.9285.1163-1.1606-.4649.1161-.8135.5223-.8135.9865-.8136.4063-1.2203-.2321-.9298-.6964.1162-.2321.4649-.2321.8716-.4062-.4067-.058-.8135-.1741-1.1621.1741-.2905-.6964.4067-.6964.9878-.5803.8135.1161 1.2203-.2902 1.6851-.8705l.9298-1.2186c.8135-.5223 1.3364-1.3928 1.4527-2.3794.3486.1161.7554.1741 1.1621.0581-.2324-.4643-.2905-1.0446-.1743-1.5669.1162.3482.4067.5803.7554.6964.2324-.8705.9878-1.2187 1.3946-1.9731l.2324.6384c.8716-.5223 1.5689-1.2767 1.9175-2.2053.2325.2902.5811.5223.9879.5223v-.5223c.3486.2322.7554.2902 1.1621.2902l-.3486-.5223c1.0459-.116 2.15-.2321 3.1959-.2321 1.5108-.058 2.9635.1741 4.3581.8124.6973.3482 2.5567.9285 2.9053-.2901.1744-.6964-.3486-1.0446-.8716-1.3928-.6973-.3482-1.3946-.6964-2.0337-1.1026.0581-.1161.1162-.1741.1162-.2902.9878.4643 2.2081.8705 2.9635 1.683.4067.5223.4067 1.2767-.0581 1.7409-.6392.6384-1.7433.5803-2.5568.4643.4649.2321.8135.6383.9879 1.1606-.2325 0-.523-.058-.7554-.116-.1163-.2902-.2906-.5223-.4649-.7545l.0581.2902c.0581.4643.1162.9285.1162 1.3928 0 .6383.0581 1.2767.1162 1.915.1162.7544.5811 1.3348 1.2784 1.6249.2324.0581.4649.1161.6392.2321.1743.1161.1743.2322.1743.4063-.2324.6383-.0581 1.3347.4649 1.799-.2325-.5223-.2906-1.1607-.1744-1.741.1163-.3482-.0581-.6964-.4067-.8705-.2324-.058-.4649-.1741-.6973-.2321-.8135-.3482-.9297-1.0446-1.0459-1.799-.0581-.4062 0-.8705-.0581-1.2767 0-.2902 0-.5223-.0582-.8124.2325.2901.523.5222.8136.7544h-.6392c.4648.3482.6973.6383 1.0459.9285-.2324 0-.4649-.1161-.6392-.2321-.1162.6963.0581 1.3927.4649 1.915.3486.4062.7554.4062 1.2784.4643.5229.058.1743.6963.9878.6963-.1743.1741-.3487.2322-.5811.2322zm-1.104 4.0622c.1162.1161.2324.2321.3486.3482 0-.1741.0581-.2902.1162-.4643-.0581.1161-.2324.1741-.4648.1161zm1.2783-.5803c.1162-.1161.1162-.2902.1162-.4643-.1162.1161-.2324.1741-.3486.1741l.2324.2902zm-25.1024-8.995c-.0582-.116-.3487-.1741-.3487-.1741.0581.1161.0581.2902.1162.4063-.0581-.1161.1162-.1741.2325-.2322zm22.2552 9.5173c0 .1741 0 .3482.1162.5223.1162-.1741.1743-.1741.3486-.2322-.2324 0-.4067-.116-.4648-.2901zm-5.927.1741c.0581.2321.1162.4062.2905.5803.1162-.1741.1743-.3482.2906-.5223-.1744.058-.4068.058-.5811-.058zm1.5108-.6384c.1162.1741.2324.2902.2905.4643.1743-.2322.1162-.2321.2324-.4643-.1743.0581-.3486.0581-.5229 0zm-2.4986.4643c-.2906-.0581-.4068-.1161-.4649-.2902-.0581.1741-.0581.4062-.0581.5803.2324-.116.2324-.2321.523-.2901zm5.985-.9866c-.1743.1161-.1743.2902-.2324.4063.1162-.0581.2905 0 .4068 0-.0582-.1161-.1163-.2902-.1744-.4063zm-2.4986-4.6425c-1.2784.5223-.7554 1.6829.2905 1.915-.6391-.6383-.8716-.9285-.2905-1.915zm.4068 3.656c-.4649-.1161-.9298-.058-1.3365.2321.8135.6384.3486 1.3928-.5811.8705-.1162.6964-.5811.9285-.8135.8124-.5811-.4062-.0581-.7544.1743-.9865-.3486 0-.6973.2321-.8135.5803-.5811.4062-1.0459-.1741-.8716-.5223.1162-.1741.3487-.2901.8135-.2321-.523-.4062-.6973-.3482-1.0459-.058-.1743-.1741-.1743-.4643 0-.6384.2324-.2321.5811-.2321.8135 0 .5811.2902.9297.2902 1.2784-.2321.1743-.2902.3486-.5803.4648-.8705.1743-.5223-.1162-.7544-.5811-.9865-.581-.2902-1.0459-.7544-1.2783-1.3928.0581-.5803.3486-1.1606.8716-1.5088.2905-.2902.523-.5803.6973-.9285 1.0459.116 1.5689 1.4508 2.0337 2.5534-.4648.8124-.1743 1.0445.4068 1.5088.2905.2321.2905.3482-.0581.5223-.9878.3482-1.8014 1.1606-2.0338 2.2052.4068-.5803.8135-1.0446 1.3365-1.5088l.1743.1741c.1743.116.2906.2321.3487.4062zm-17.6647-4.1783c.1743.2321.3486.4643.581.6964-.0581-.3482-.1162-.7544-.1162-1.1026-.2324-.0581-.4648-.1741-.5811-.4063.7554.1741 1.9176.4063 2.8473 0 .0581-.5222-.0581-1.0445 0-1.6248-.9878.4642-2.0338.7544-3.1378.8124-.1743-.058-.2905-.058-.4067-.2321-.1163-.2322-.1744-.5223-.2325-.7544-.0581-.1741-.1162-.3482-.2324-.5223-.1162-.0581-.5811.116-.4649.2321.2325.2902.4068.6383.4068.9865-.1743-.2321-.4068-.4062-.6392-.5222-.5811-.2322-.5811.4642-.4649.8124.2906-.1161.6392-.058.9298.058-.8135.1161-1.1622.9866-.4649 1.0446.2905-.058.5811-.1161.8135-.2902.1162.9866.2905 1.1607 1.1622.8125zm11.9701-8.1245c-.0581.6384-.1743 1.6249.5811 1.857-.2324-.4642-.2905-1.0445-.2905-1.5668-.1163-.0581-.1744-.2322-.2906-.2902zm-8.3094 4.0042c-.1162.2321-.2324.4643-.2905.7544.2324.0581.4067 0 .6392-.058-.1162.3482-.1743.7544-.1743 1.1026.9297.1161 1.5108-.8124 1.7432-1.6249-.3487.5223-.8135.9285-1.3365 1.1607.1162-.5223.3487-.9866.6392-1.4508-.2905.1741-.5811.3481-.9297.4642.2905-.5803.7554-1.1026 1.3364-1.5088-.9297.116-1.104.3482-1.627 1.1606zm2.2662.9285c-.7554.3482-1.2202 1.1026-1.3364 1.9151-.1744-.2902-.3487-.5803-.4649-.9285-.1743.8705-.0581 1.2186.6973 1.5088.0581-.9285.4648-1.799 1.104-2.4954zm1.9757-3.656c-.9878.4643-1.627 1.5089-1.627 2.6115.6392-.3482 1.2202-.7545 1.7432-1.2767l-.1743.6383c.4648-.1161.8716-.2902 1.2202-.6383.1163.4642.1163.9865 0 1.4508.6392-.9286.4649-1.2187.2325-2.3213-.2906.2901-.4649.6964-.9298.8705l.3487-1.5089c-.5811.7544-1.2784 1.4508-2.0919 2.0311.2325-.6963.9297-1.3347 1.2784-1.857zm.4648-2.0311c-.6391.4643-1.0459 1.1606-1.1621 1.9151 1.2203-.4063 2.0338-1.4508 2.15-2.7275-.2906.7544-.8135 1.3927-1.4527 1.857.1162-.3482.3486-.6964.4648-1.0446zm.8136-3.0177c.2324.7545-.0582 1.5089-.6392 1.9731.5229-.116.8716-.2901.9878-.8124.0581-.4062-.0581-.8705-.3486-1.1607zm1.627-1.4508c-.523.1161-.9879.5804-1.1041 1.1026.2325-.2321.523-.4642.8716-.5803.0581.4063.1163.7544.0581 1.1607.3487-.4643.4649-1.1607.1744-1.683zm-.4649 2.4374c.1162.6964-.0581 1.3928-.4067 1.9731.9878-.2902.9878-1.2767.4067-1.9731zm.7554 1.6249c-.6392.5803-1.104 1.3347-1.3365 2.1472-.0581-.4643-.0581-.9866.0581-1.4508-.6391.9285-.5229 1.4508-.1743 2.3793.523-.9866.9297-2.0892 1.4527-3.0757zm-4.3581-.5223c.5811.3482 1.5689-.058.8135-1.0446.1744.8125-.1162.9866-.8135 1.0446zm.6392-2.5534c0 .1741.0581.3482.1743.3482.1163 0 .1744-.1161.1744-.3482 0-.2321-.0581-.3482-.1744-.3482-.1162.058-.1743.2321-.1743.3482zm-3.8351 9.2271c-.3486.058-.7554.1741-1.0459-.0581.4067-.3482.6973-.7544.8716-1.2186.1743-.5223.523-1.0446.9297-1.3928.3487-.1741.6973-.2902 1.046-.4643-.1163.2322-.4649.4063-.6392.5804 1.3946.5223 1.9175.058 2.0918-1.1026-.2324.4642-.6972.8124-1.2202.9285.2324-.3482.4067-.7545.3486-1.1607-.5229.3482-1.4527 1.1607-2.0918.8125.1162 0 .4067-.2322.5229-.2902.3487-.2901.6973-.5223 1.1041-.6964.4648-.116.9878-.2321 1.5108-.2321-.4649-.1161-.9298-.2321-1.3365-.4643.6392-.116 1.1621-.4642 1.5689-.9865 1.104-.1161 1.4527-.6964 1.4527-1.799-.1743.5223-.2324.8705-.6392 1.1607-.2905.174-.6973.2901-1.0459.2901-.5811.1161-1.2203.1161-.9879-.6964v-.058c.2906.058.6392.058.9298.058.4648-.058.9297-.1741.8135-.7544-.0581-.2321-.2906-.4062-.5811-.4062-.3487.058-.6392.1161-.9878.1741-.2906-.1741-.4068-.5223-.3487-.8125.1162-.2901.4649-.4062.6973-.5223-.523-.174-.6973.2322-.9297.2322-.0581-.0581-.0581-.0581-.0581-.1161.2324-.2321.5229-.4062.8135-.5223.2905-.116.6392-.1741.9297-.1741.1162 0 .2905-.058.4068-.116.0581.2901.2905.4642.581.5223-.2905.2321-.4648.5803-.5229.9285.3486-.4063.6973-.7545 1.1621-1.0446.0581.4642-.523.6964-.8135.8124.9297.4063 1.1041-.2901.9297-.8704-.4648-.0581-.8716-.1741-1.2783-.4063.1743-.116.3486-.2321.581-.2901.4649-.1161.9879-.0581 1.4527.116-.0581.1741-.0581.3482-.0581.5223.3487-.4642.8716-.7544 1.4527-.8124.1743.5803.1162 1.1606-.0581 1.7409.2324-.1741.4068-.2901.4649-.5803.2905.2902.581.5803.6973.9866.1743.2901.4067.5803.7554.6963-.5811.4643-1.2784-.5222-1.5108-.9285.0581.7544.2324 1.1607.9297 1.3928.2905.6964.2905 1.5669.9297 2.2632-1.1621-.116-1.2784-1.3927-1.9176-1.973-.0581.6383-.2905 1.2767-.581 1.857.4067-.1741.6973-.5223.8135-.9285.0581.116.1162.2901.1743.4062-.1162.6383-.4067 1.2187-.8135 1.741-.1162-.2902-.1743-.6384-.1162-.9866-.2906.5223-.2906 1.1026-.0581 1.6249.3486-.2902.6392-.5803.8716-.9285l.2905.6383c0 .4063.1162.8125.2325 1.1607-.2325-.1741-.4068-.3482-.5811-.5803-.0581.2901-.1743.5223-.2325.8124-.2905-.2901-.581-.5803-.6972-.9865-.1744.5223-.3487 1.0445-.6392 1.5088-.2325.4062-.5811.7544-.9879 1.0446-.1743-.5223-.4067-.9866-.6391-1.5089v.2322c-.2906.1741-.523.3482-.7554.5803.0581-.2902.1162-.5803.2905-.8125-.8716.5223-.6973 1.1027-.523 1.9151.2906-.5223.6392-1.0446.9879-1.5669 0 .5223-.2325 1.0446-.523 1.4508-.3487.2902-.6392.6384-.8716 1.0446-.2324-.2321-.4068-.5803-.6392-.8705-.3486.5804-.4068 1.3348-.2324 1.9731-.3487-.058-.6392-.1741-.9298-.4062-.1162.8705-.1743 1.741-.8716 2.4373v-.5223c.1162-.6963.1744-1.1026-.4648-1.5668.2905.5803.1743 1.2187-.1743 1.7409.1162-.6383.0581-1.2767-.1163-1.857l-.5229.2902c-.0581-.4062-.0581-.8705 0-1.2767.1162-.3482.2324-.6384.4067-.9285zm13.5972-4.7006c.2905 0 .523.058.8135.116.1162-.1741.2324-.2901.4068-.4062l-.1744-.1741c-.4067-.058-.8135.1161-1.0459.4643zm-11.0404-2.4954c.0581-.1161.0581-.2321.1743-.3482-.1162.058-.2325.058-.3487 0l.1744.3482zm7.9607-.058c.9297.9285 2.0919 1.6249 3.3702 1.915.1162-.058.2906-.116.4068-.1741-.2906-.058-.523-.2321-.8135-.2901-.6973-.2322-1.3365-.5803-1.9176-.9866-.4067-.2321-.7554-.5803-.9878-1.0445-.2905-.4063-.1743-1.0446.2324-1.3348.2906-.2321.6973-.2321.9879-.058.0581-.058.1162-.1741.1743-.2321-1.627-.6964-2.3824 1.2186-1.4527 2.2052zm5.1716 1.915c-.3487-.1741-.5811-.5803-.523-.9865-.523.2321-.523.8124.1162 1.2187l.6973.2901c-.2324 0-.4649.058-.6973.058-.4067.0581-.8716.5223-.523.9866.0582-.7544 1.1041-.2902 1.4527-.7544.1744-.3482-.3486-.6384-.5229-.8125zm-16.5607 8.1245c-.4067.058-.7554.1161-1.1621.058.3486.1741.6972.2902 1.0459.4063 0-.1741.0581-.2902.1162-.4643zm-3.4864.8705c-.2325-.0581-.2325-.0581-.2906-.2321-.0581.174-.0581.3481.0581.5222.0581-.2321.1162-.1741.2325-.2901zm4.1256-.2902c.0581-.2321.0581-.5223 0-.7544l-.6973.6384c.2324.058.4649.116.6973.116zm-1.9757-.4642l-.7554-.1161c.1162.4062.4649.7544.8716.9285v-.1161c-.0581-.2321-.1162-.4642-.1162-.6963zm14.8756-12.3028c-.1744.058-.3487.2321-.4649.4062-.0581.2902.0581.6384-.0581.9285.3487-.058.523-.5803.6392-.8705 0 .6384.1743 1.2187.5811 1.683-.0581-.4063-.1744-.8125-.2906-1.2187.4649.5803 1.046.9865 1.7433 1.2187v-.0581c-.4068-.4642-.8136-.9285-1.3365-1.2767.4648.1741 1.2202.5223 1.7432.1161-.4649-.1161-.8716-.2902-1.2784-.5803-.4648-.2902-.7554-.5803-1.2783-.3482zm4.881-14.3339v2.6695h3.3702v-1.3928h-.581V18.164h-2.7892zm5.0554 25.7082c.1162.9285.2324 1.915.2324 2.8435h2.7892l-.0581-2.8435h-2.9635zm-7.6702-25.302h-1.5108v2.3213h1.5108v-2.3213zm1.5689-7.312v3.4239h9.2972v-3.4239h-1.6851v2.0311h-2.15v-2.0311h-1.6851v2.0311h-2.15v-2.0311h-1.627zM8.5999 27.8553h5.1716v-2.7275H8.71612l-.11622 2.7275zm35.6199-12.709h-7.2053v2.6695h2.8473v-1.741h1.5108v1.741h2.8472v-2.6695zm-31.378 22.4584H8.30936l-.0581 2.7275H11.912c.2325-.9285.523-1.857.9298-2.7275zm-4.76487 9.111h2.78917v-.116c.0581-.9286.1162-1.799.2905-2.7275H8.13504l-.05811 2.8435zm32.71457 3.8882h4.9973v-3.482h-4.8811l-.1162 3.482zm-33.46996 0h5.05536l-.1743-3.482H7.26343v3.482h.05811zM19.8728 18.5702H18.362v2.3213h1.5108v-2.3213zM44.859 37.6047h-4.4743c.4068.8705.6973 1.799.9298 2.7275h3.6026l-.0581-2.7275zm-3.0216 3.1337h-.4067c.1743.5803.2905 1.1607.4067 1.741v-1.741zm-.4648-21.2977h-.5811v1.3928h3.3702V18.164h-2.8472l.0581 1.2767zM21.6741 7.77628v3.42392h9.8202V7.77628h-1.7432v2.08915h-2.2662V7.83431h-1.8014v2.03112h-2.2662V7.83431h-1.7432v-.05803zM13.2485 19.4407h-.5811v1.3928h3.3703V18.164h-2.8473l.0581 1.2767zm32.1335 2.5534l.2324-.7544H7.61207l.23243.7544H45.382zM8.89044 18.164v2.6695h3.37026v-1.3928h-.5811V18.164H8.89044zm7.14726-3.0177H8.89044v2.6695h2.84726v-1.741h1.5108v1.741h2.8473v-2.6695h-.0581zm-8.2513-3.8881v3.4819h9.2972v-3.4239h-1.627v2.0311h-2.15v-2.0311h-1.6851v2.0311H9.47152v-2.0311H7.7864v-.058zm14.8174 9.6333h3.7189V18.164h-3.7189v2.7275zm7.9608-2.7275h-3.8351v2.7275h3.8351V18.164zm-1.1622-3.4239h-2.0338v1.6249h-1.5107v-1.6249h-2.0338v3.0177h5.5783v-3.0177zm1.1622 0h-.7554v3.0177h.7554v-3.0177zm0-3.0757h-3.777v1.3348h.581v1.3347h3.196v-2.6695zm-7.9608 6.0934h.7554v-3.0177h-.7554v3.0177zm3.1959-4.7586h.5811v-1.3348h-3.777v2.6695h3.1959v-1.3347zM11.7958 40.7384h-.4648v2.0311c.1162-.6963.2905-1.3347.4648-2.0311zm30.0416-12.4768h-5.3459v2.7275h5.3459v-2.7275zm-2.3824 3.0756v2.7276h5.2878l-.0581-2.7276H39.455zm5.404 5.8613l-.1162-2.7275h-2.5567v2.7275h2.6729zm-2.6148-14.7982v2.3213h2.2662l-.0581-2.3213h-2.2081zm-6.1594 8.5888v-2.7275l-3.4865.058c1.1622.8124 2.2662 1.6829 3.3122 2.6695h.1743zm2.9635-5.8613h-5.8689v2.7275h5.8689v-2.7275zm.4067 2.7275h5.1716l-.0581-2.7275h-5.0554v2.7275h-.0581zm2.7892.4063v2.7275h2.4405l-.0581-2.7275h-2.3824zm-.4068 8.9369V34.471h-3.0797c.523.8705 1.046 1.799 1.4527 2.7275h1.627zm3.196 6.2674l-.0582-2.7275h-2.731v2.7275h2.7892zm-8.9486-21.0656h-5.6946v2.3213h5.6946v-2.3213zm-13.5972 5.8613c1.3365-.6964 2.673-1.2767 4.1257-1.683 4.7067 1.799 9.0066 4.8747 11.6796 9.2851 1.8594 3.3079 2.8472 7.0799 2.9635 10.852h.6391c-.0581-.9865-.1162-1.9731-.2324-2.9016-.8135-5.6291-3.5445-10.91-8.135-14.3339-2.15-1.5668-4.4743-2.7855-6.973-3.598-4.5323 1.5669-8.5999 4.1783-11.389 8.1826l-.2906.4062c-2.2662 3.714-3.4864 7.8923-3.6026 12.2447h.6972c.2325-4.4104 1.3365-8.7628 3.8932-12.4188 1.7433-2.4954 4.0095-4.5265 6.6243-6.0353zm15.9796 5.8032h.5811v-2.7276h-2.7311c.0581.0581 1.2203 1.4509 2.15 2.7276zm-1.9757-9.3432h5.3459v-2.3213h-5.3459v2.3213zm-19.6984 6.6156h-2.673v2.7276h.523c.6392-.9286 1.3946-1.8571 2.15-2.7276zm-8.48374 5.8613h2.61484V34.471H8.36747l-.05811 2.7275zm8.36754-8.9369H11.331v2.7275h5.3459v-2.7275zm-8.19321 2.7275h2.44051v-2.7275H8.54179l-.0581 2.7275zm8.19321-8.5888H11.331v2.3213h5.3459v-2.3213zm-5.7527 18.3381H8.19315l-.05811 2.7275h2.78916v-2.7275zm2.7892-9.4012H8.48369l-.05811 2.7276h5.34592v-2.7276h-.0581zm9.0648-8.9369h-5.6946v2.3213h5.6946v-2.3213zm-2.2081 5.8613h-3.4865v2.7275h.1162c.9879-1.0446 2.15-1.9731 3.3703-2.7275zm2.6148-3.54h6.7986v-2.3213h-6.7986v2.3213zm-8.7742 9.7494H11.331v2.7275h1.627c.4648-.9285.9297-1.857 1.4527-2.7275zm12.1444-9.053c1.8595.6383 3.6608 1.4508 5.3459 2.4373h.8717v-2.7275h-12.377v2.7275h.8135c1.6852-.9865 3.4865-1.799 5.3459-2.4373zM8.71612 22.4003l-.05811 2.3213h2.26619v-2.3213H8.71612zM19.989 25.1278h-5.8689v2.7275h5.8689v-2.7275z"/><path fill="#000" d="M72.9831 8.1277c0 10.2717-1.3364 13.1152-3.7189 13.1152-.1743 0-.4067 0-.581-.058V19.618h.1743c2.15 0 2.3824-3.8301 2.3824-13.11519h7.3797V21.2429h-1.6852V8.1277h-3.9513zm10.227 7.6602h1.8013c1.1621 0 1.8013.8705 1.8013 1.9731s-.4648 2.0311-1.8013 2.0311h-1.8013v-4.0042zm5.2296 2.1472c.1163-1.857-1.3364-3.4239-3.1959-3.5399h-1.9756V9.92669h-1.5689V21.2429h3.4864c1.8014 0 3.254-1.5088 3.254-3.3078zm5.2878-1.9731c1.046 0 1.627.8705 1.627 1.9151 0 1.3347-.6391 1.915-1.6851 1.915h-1.9175V15.962h1.9756zm-.2324-4.7006c.8135-.058 1.5108.4643 1.5689 1.2767v.3482c0 .8705-.6973 1.6249-1.5689 1.6249h-1.7432v-3.3078l1.7432.058zm-3.3121 9.9815h3.3702c1.5689 0 3.4865-1.1026 3.4865-3.0757 0-1.799-1.046-2.6694-2.0919-2.9016 1.104-.4062 1.8594-1.4508 1.8013-2.6114 0-1.5088-1.3364-2.66947-3.1959-2.66947h-3.3121V21.2429h-.0581zm10.634-11.37424h-1.5692V21.2429h1.5692V9.86866zm.174-2.37931c0-.52229-.407-.98654-.988-.98654-.5228 0-.9296.40622-.9296.92851v.05803c0 .52229.4068.98654.9296.98654.523 0 .988-.40622.988-.98654zm6.392 8.47265c1.046 0 1.627.8705 1.627 1.9151 0 1.3347-.639 1.915-1.685 1.915h-1.918V15.962h1.976zm-.175-4.7006c.814-.058 1.511.4643 1.569 1.2767v.3482c0 .8705-.697 1.6249-1.569 1.6249h-1.743v-3.3078h1.743v.058zm-3.312 9.9815h3.371c1.569 0 3.486-1.1026 3.486-3.0757 0-1.799-1.046-2.6694-2.092-2.9016 1.104-.4062 1.86-1.4508 1.802-2.6114 0-1.5088-1.337-2.66947-3.196-2.66947h-3.313V21.2429h-.058zm15.573-8.1244c-.29-1.9151-1.336-3.42393-3.486-3.42393-3.022 0-3.661 2.90163-3.661 5.91923 0 2.9016.639 5.8613 3.661 5.8613 2.15 0 3.196-1.5089 3.486-3.4239 0 0-.871-.2322-1.569-.4063-.232 1.3348-.697 2.3794-1.917 2.3794-1.802 0-2.092-2.2633-2.092-4.5265 0-2.2633.29-4.4105 2.092-4.4105 1.22 0 1.685 1.0446 1.917 2.3793l1.569-.3481zm3.487 2.6694h1.801c1.162 0 1.801.8705 1.801 1.9731s-.465 2.0311-1.801 2.0311h-1.801v-4.0042zm5.171 2.1472c.116-1.857-1.336-3.4239-3.196-3.5399h-1.975V9.92669h-1.569V21.2429h3.486c1.802 0 3.254-1.4508 3.254-3.3078 0 .058 0 0 0 0zm1.802 3.3078h1.568V16.02h1.221c.406 0 .813.2902 1.104.9866l.871 2.4954c.175 1.0445 1.046 1.799 2.092 1.799.233 0 .407 0 .639-.0581v-1.3927c-.116.058-.174.058-.29.058-.581-.058-.988-.5223-1.104-1.0446l-.697-2.2052c-.233-.6964-.814-1.2187-1.569-1.3928.639-.2321 1.104-.6964 1.278-1.3347l.639-1.6249c.233-.6383.581-.9285 1.104-.9285h.407V9.98473c-.174-.05804-.407-.05804-.581-.05804-.93 0-1.801.58031-2.15 1.45081l-.988 2.3793c-.174.5223-.639.8705-1.22.9285h-.814V9.98473h-1.569l.059 11.25817zm14.178-4.5845c0 1.799-.523 3.3659-2.208 3.3659-1.221 0-1.627-.8705-1.627-2.0312 0-2.4373 1.627-2.4953 3.835-2.4953v1.1606zm-2.557 4.7586c1.22 0 1.918-.2901 2.789-1.7409.407 1.1606.988 1.6249 1.802 1.6249.174 0 .406 0 .581-.0581v-1.3927c-.117 0-.175.058-.291.058-.581 0-.697-.4062-.697-1.1026v-5.397c0-2.9016-1.453-3.71403-3.312-3.71403-1.744 0-2.615.87043-3.254 2.49533l1.452.4063c.291-.8125.698-1.5089 1.744-1.5089 1.162 0 1.743.4063 1.743 2.2633v.8705h-1.22c-2.848 0-4.242 1.3927-4.242 3.8881 0 1.9151.988 3.3078 2.905 3.3078zm-61.8264 7.196h-1.5689l-3.3702 6.7317-3.3703-6.7317h-1.5689v11.3162h1.5689v-3.8301c0-.9285-.1162-3.8301-.2324-4.6425l3.0216 6.0353h1.0459l3.0216-6.0353c-.1162.8704-.2324 3.714-.2324 4.6425v3.8301h1.5689V28.613h.1162zm4.4743 0H82.629v11.3162h1.5689V28.613zm.1162-2.4374c0-.5222-.4068-.9865-.9878-.9865-.523 0-.9879.4643-.9879.9865 0 .5223.4649.9866.9879.9866.5229 0 .9878-.4062.9878-.9866zm9.3553 5.6291c-.2905-1.915-1.3365-3.4819-3.4864-3.4819-3.0216 0-3.6608 2.9016-3.6608 5.9193 0 2.9016.6392 5.8612 3.6608 5.8612 2.1499 0 3.1959-1.5088 3.4864-3.4239 0 0-.8716-.2321-1.5689-.4062-.2324 1.3347-.6973 2.3793-1.9175 2.3793-1.8014 0-2.0919-2.2632-2.0919-4.5265 0-2.2632.2905-4.4104 2.0919-4.4104 1.2202 0 1.6851 1.0446 1.9175 2.3793l1.5689-.2902zm3.6027 2.6695h1.8013c1.1626 0 1.8016.8705 1.8016 1.9731s-.465 2.0311-1.8016 2.0311h-1.8013v-4.0042zm5.1719 2.1472c.116-1.857-1.337-3.4239-3.1962-3.54h-1.9757V28.613h-1.5689v11.3162h3.4864c1.8014 0 3.2544-1.4508 3.2544-3.3078 0 .058 0 0 0 0zm1.627 3.3078h1.569v-5.2229h1.22c.407 0 .813.2902 1.104.9866l.872 2.4954c.174 1.0445 1.045 1.7989 2.091 1.7989.233 0 .407 0 .64-.058v-1.3928c-.117.0581-.175.0581-.291.0581-.581-.1161-.988-.5223-1.162-1.0446l-.697-2.2052c-.291-.6964-.872-1.2187-1.569-1.3928.639-.2321 1.104-.6964 1.278-1.3347l.639-1.6249c.233-.6384.581-.9285 1.104-.9285h.407V28.671c-.174-.058-.407-.058-.581-.058-.93 0-1.801.5803-2.15 1.4508l-.988 2.3793c-.174.5223-.639.8705-1.22.9285h-.814V28.671h-1.569v11.2582h.117zm14.178-4.5845c0 1.799-.465 3.3658-2.208 3.3658-1.22 0-1.627-.8704-1.627-2.0311 0-2.4373 1.627-2.4953 3.835-2.4953v1.1606zm-2.557 4.8166c1.22 0 1.918-.2901 2.731-1.7409.407 1.1606.988 1.6249 1.802 1.6249.174 0 .406 0 .581-.0581v-1.3927c-.117 0-.175.058-.291.058-.581 0-.697-.4062-.697-1.1026v-5.397c0-2.9016-1.453-3.714-3.312-3.714-1.744 0-2.615.8705-3.254 2.4954l1.452.4062c.291-.8125.698-1.5088 1.744-1.5088 1.162 0 1.743.4062 1.743 2.2632v.8705h-1.22c-2.848 0-4.242 1.3927-4.242 3.8881.058 1.9151 1.046 3.3078 2.963 3.3078zM71.4142 52.9864c0-2.1472.2906-4.4685 2.15-4.4685s2.2662 2.3794 2.2662 4.4685c0 2.0892-.3486 4.4104-2.2662 4.4104-1.9175 0-2.15-2.2052-2.15-4.4104zm-1.5689 8.9369h1.5689v-4.4684c.523.8124 1.3946 1.3347 2.3824 1.3927 2.9635 0 3.6608-2.9016 3.6608-5.8612s-.6973-5.9193-3.6608-5.9193c-1.104 0-1.8594.6964-2.4986 1.5669l-.4067-1.3347h-1.046v14.624zm14.7012-7.8923c0 1.799-.5229 3.3658-2.2081 3.3658-1.2202 0-1.627-.8704-1.627-2.0311 0-2.4373 1.627-2.4954 3.8351-2.4954v1.1607zm-2.5567 4.8166c1.2203 0 1.9176-.2901 2.7311-1.7409.4067 1.1606.9878 1.6249 1.8013 1.6249.1743 0 .4067 0 .5811-.0581v-1.4508c-.1162 0-.1744.0581-.2906.0581-.581 0-.6973-.4063-.6973-1.1026v-5.397c0-2.9016-1.4526-3.7141-3.3121-3.7141-1.8594 0-2.6148.8705-3.254 2.4954l1.4527.4062c.2905-.8124.6973-1.5088 1.7432-1.5088 1.1621 0 1.7432.4062 1.7432 2.2633v.8704h-1.2202c-2.8473 0-4.2419 1.3928-4.2419 3.8882.0581 1.9731 1.046 3.3658 2.9635 3.3658zm8.4256-1.6249c1.0459-1.7409 1.3365-3.772 1.5108-8.4726h2.8473v8.4726h-4.3581zm0-9.9234c0 5.9773-.4068 8.7628-1.6851 9.9234l-.6392.1161v3.8301h1.2203l.2324-2.5534h6.3918l.2325 2.5534h1.2202v-3.9462h-1.0459v-9.9234h-5.927zm13.8296 6.7317c0 1.799-.465 3.3658-2.208 3.3658-1.22 0-1.627-.8704-1.627-2.0311 0-2.4373 1.627-2.4954 3.835-2.4954v1.1607zm-2.615 4.8166c1.22 0 1.918-.2901 2.789-1.7409.407 1.1606.988 1.6249 1.802 1.6249.174 0 .406 0 .581-.0581v-1.4508c-.116 0-.175.0581-.291.0581-.581 0-.697-.4063-.697-1.1026v-5.397c0-2.9016-1.453-3.7141-3.312-3.7141-1.743 0-2.6151.8705-3.2542 2.4954l1.4522.4062c.291-.8124.698-1.5088 1.744-1.5088 1.162 0 1.743.4062 1.743 2.2633v.8704h-1.22c-2.848 0-4.2422 1.3928-4.2422 3.8882.0581 1.9731 1.0459 3.3658 2.9052 3.3658z"/></svg>