<svg xmlns="http://www.w3.org/2000/svg" width="56" height="70" fill="none"><path fill="#1F1A17" d="M16.1778 69.3524h-.8889v-3.4735H16v2.4726l1.1259-2.4726h.8889v3.4735h-.7111v-2.4727l-1.1259 2.4727zm23.0518-3.4735c-.474 0-.8296.1177-1.0666.2943-.2371.1766-.3556.471-.3556.8242 0 .471.2371.7654.6519.942l-.7704 1.413h.8296l.5926-1.2952h.4741v1.2952h.7704v-3.4735h-1.126zm-.0592 1.7073c-.1778 0-.2963-.0589-.4148-.1178-.1186-.1177-.1778-.2355-.1778-.4121 0-.4121.237-.5887.6518-.5887h.3556v1.1186h-.4148zm-4.2074-1.7073l-.2371 1.825c-.0592.2944-.0592.5299-.1185.7065-.0592.2944-.237.3532-.4148.4121v.6476c.5333 0 .8889-.2944 1.0667-.7653.0592-.2355.1185-.5299.1777-.942l.1186-1.2363h.8296v2.8847h.7704v-3.4735H34.963v-.0588zm-13.8667.5887v-.5887h-2.6074v.5887h.9481v2.8848h.7704v-2.8848h.8889zm-8.8889-.5887v3.4735h.7704v-1.1775h.4148c.4148 0 .7704-.1177 1.0074-.2944.237-.1766.3556-.471.3556-.8831 0-.3532-.1186-.6476-.3556-.8242-.237-.1766-.5926-.2943-1.0667-.2943h-1.1259zm.7111 1.7661v-1.2363h.3556c.4741 0 .6518.1766.6518.5887 0 .2355-.0592.4121-.1777.471-.1186.1178-.2963.1178-.4741.1178h-.3556v.0588zm-1.2444-1.7661h-.7111l-.7704 1.4129h-.41482v-1.4129h-.77037v3.4735h.77037v-1.5307h.41482l.7704 1.5307h.8296l-1.0074-1.884.8889-1.5895zm-3.67409 2.9436v-2.8848H6.04445l-.11852 1.0597c-.05926.4121-.11852.7654-.11852 1.0009-.05926.2943-.11852.5887-.35555.8242h-.23704V70h.59259v-.6476h1.8963V70h.59259v-1.1775h-.29629zm-.71112 0H6.10371c.2963-.3532.2963-.5887.41481-.8831.05926-.2355.11852-.5887.11852-.942l.05926-.4709h.59259v2.296zm-2.6074-2.9436h-.77037v3.4735h.77037v-3.4735zm-2.13334 1.6484c.17778-.0589.35556-.1178.47408-.2355.11852-.1177.17778-.2944.17778-.471 0-.2943-.11852-.5298-.35556-.7065-.23704-.1177-.59259-.2354-1.06667-.2354H.711117v3.4735H1.77778c.47408 0 .82963-.0589 1.06667-.2355.23704-.1767.41482-.4121.41482-.7654 0-.2355-.05926-.471-.23704-.5887-.05926-.1178-.2963-.1766-.47408-.2355zm-.77037-1.1186c.23704 0 .41482.0589.47408.1178.11852.0588.17778.1766.17778.3532s-.05926.2944-.11852.3532c-.11852.0589-.23704.1178-.41482.1178h-.41481v-.8831h.29629v-.0589zm-.29629 2.4138v-1.0008h.41481c.41482 0 .65185.1766.65185.5298 0 .1766-.05926.2944-.17777.4121-.11852.0589-.2963.1178-.53334.1178h-.35555v-.0589zm32.00001 0v-2.8848h-1.9556l-.1185 1.0597c-.0592.4121-.1185.7654-.1185 1.0009-.0593.2943-.1185.5887-.3556.8242h-.1777V70h.5926v-.6476h1.837V70h.5926v-1.1775h-.2963zm-.7111 0h-1.1852c.2963-.3532.2963-.5887.4148-.8831.0593-.2355.1185-.5887.1185-.942l.0593-.4709h.5926v2.296zM56 65.8789h-.7704l-.6518 1.9428-.8296-1.9428h-.7704l1.2444 2.6492c-.1777.1767-.4148.2355-.6518.2355v.6476c.237 0 .5333-.0588.7111-.1177.4148-.1766.5926-.5887.7704-.942L56 65.8789zm-6.2222 0h-.7704v3.4735h.7704v-3.4735zm-2.1333 1.6484c.1777-.0589.3555-.1178.474-.2355.1185-.1177.1778-.2944.1778-.471 0-.2943-.1185-.5298-.3555-.7065-.2371-.1177-.5926-.2354-1.0667-.2354h-.9482v3.4735h1.0667c.4741 0 .8296-.0589 1.0667-.2355.237-.1767.4148-.4121.4148-.7654 0-.2355-.0593-.471-.2371-.5887-.1777-.1178-.3555-.1766-.5925-.2355zm-.7704-1.1186c.237 0 .4148.0589.4741.1178.1185.0588.1777.1766.1777.3532s-.0592.2944-.1185.3532c-.1185.0589-.237.1178-.4148.1178h-.3556v-.8831h.2371v-.0589zm-.2963 2.4138v-1.0008h.4148c.4148 0 .6519.1766.6519.5298 0 .1766-.0593.2944-.1778.4121-.1185.0589-.2963.1178-.5334.1178h-.3555v-.0589zM43.437 67.645c0-.5298.2371-.8242.5334-1.0008.2963-.1766.7111-.1177 1.1852.0589v-.6476c-.5926-.2944-1.2445-.2355-1.7186.0588-.474.2944-.7111.8243-.7111 1.4719s.2371 1.1774.7111 1.4718c.4741.2944 1.1852.3532 1.7186.0589v-.6476c-.4741.2355-.8889.2355-1.1852.0588-.3556-.0588-.5334-.3532-.5334-.8831zm9.363-1.1774v-.5887h-2.6074v.5887h.9482v2.8848h.7703v-2.8848H52.8zm-29.0963.4121v2.4727h.7111v-3.4735h-.8889L22.4 68.3515v-2.4726h-.7111v3.4735h.8889l1.1259-2.4727zm2.9037-1.1775c.4741 0 .8296-.2943.8296-.8242h-.4148c0 .1766-.1777.2944-.4148.2944-.237 0-.3555-.1178-.4148-.2944h-.4148c.0592.5299.4148.8242.8296.8242zm.6519 1.1775v2.4727h.7111v-3.4735h-.8889l-1.1259 2.4726v-2.4726h-.7112v3.4735h.8889l1.126-2.4727zM40 44.7434c-.1778 0-.3555.1767-.3555.3533v16.4255c0 .1767.1777.3533.3555.3533h2.0148c.1778 0 .3556-.1766.3556-.3533V45.0378c0-.1766-.1778-.3532-.3556-.3532H40v.0588zm-30.69629 1.413v15.307c0 .1766.17778.3532.35555.3532h2.01484c.1778 0 .3555-.1766.3555-.3532V45.0378c0-.1766-.1777-.3532-.3555-.3532l-7.05187.0588c-.47408 0-.53334.2355-.59259.5299 0 1.3541 0 4.651-.41482 7.7124-.41481 3.0614-1.18518 5.8873-3.081481 6.2994-.414815.0588-.4740739.2355-.4740739.5887v1.4718c.0592589.3533.1185189.471.4740739.471 2.548151-.1177 3.970371-2.3549 4.562961-6.1228.53334-3.4146.59259-7.4768.65185-9.5963h3.55556v.0589zm9.06669 6.947c1.7185 0 3.9703 1.0597 3.9703 3.5324 0 2.4727-1.8962 3.709-3.9703 3.709h-.7111v-7.2414h.7111zm-3.3778-8.0656v16.4256c0 .1766.1778.3532.3556.3532h3.0814c3.0223 0 6.8741-.8831 6.7556-5.2397-.0593-3.8267-3.6741-4.8864-6.7556-4.8864h-.7111v-6.6527c0-.1766-.1778-.3532-.3555-.3532h-2.0148c-.2371.0588-.3556.1766-.3556.3532zm15.6444 8.5366c2.1334 0 3.9704.8831 3.9704 3.238 0 2.4138-1.7185 3.5324-3.7333 3.5324h-1.1852v-6.7704h.9481zm-.1185-7.418c1.7185 0 3.3185.8831 3.3185 2.8259 0 2.1194-1.6 3.1203-3.3777 3.1203h-.7704v-5.9462h.8296zm-3.5555-1.1186v16.4256c0 .1766.1777.3532.3555.3532h3.5556c3.0815 0 6.6963-1.3541 6.637-5.0631-.0592-2.1194-1.6-3.709-3.6148-4.1799.7111-.2355 2.6667-1.5896 2.7259-3.6502.0593-2.7081-2.1926-4.2388-5.037-4.2388h-4.2667c-.1778.0588-.3555.1766-.3555.3532zm22.1629 8.5366c2.1334 0 3.9704.8831 3.9704 3.238 0 2.4138-1.7185 3.5324-3.7333 3.5324h-1.1852v-6.7704h.9481zm-.1185-7.418c1.7185 0 3.3185.8831 3.3185 2.8259 0 2.1194-1.6 3.1203-3.3777 3.1203h-.7704v-5.9462h.8296zm-3.5555-1.1186v16.4256c0 .1766.1777.3532.3555.3532h3.5556c3.0815 0 6.6963-1.3541 6.637-5.0631-.0593-2.1194-1.6-3.709-3.6148-4.1799.7111-.2355 2.6667-1.5896 2.7259-3.6502.0593-2.7081-2.1926-4.2388-5.037-4.2388h-4.2667c-.1778.0588-.3555.1766-.3555.3532z"/><path fill="#991C78" d="M53.3926 21.1354h-.8889c-.4148 0-.8889-.0589-1.3629 0h-4.0889c1.0074-.7065 1.2444-2.7082 2.074-3.3558.4149-.2943.9482-.4121 1.2445-.3532.7111.0589 1.3629.8831 1.7185 1.4718.5926 1.0597.7704 1.7073 1.3037 2.2372zm-1.6 1.7662c0 1.0597-.7111 2.1194-1.8963 1.5895-.9481-.4121-1.0074-1.0008-.7704-1.6484.1778-.3532.4148-.7654.7704-1.0008-.7111 0-1.4815 0-2.1926-.0589-.0592 1.1186-.0592 2.296-.0592 3.4146h4.6222c.3555 0 .6518.0589 1.0074.0589v-.471c0-.8831.0592-1.7662.0592-2.6493v-.471c-.8296.0589-1.6.0589-2.4296.1178.4741.2943.8296.6476.8889 1.1186zm-5.1556 16.661c0 .2944.1186.3533.1778.4121.0593 0 .1185 0 .1778.0589.5926 0 .8296.1178.8296-.4121 0-1.0597 0-2.9436-.0592-3.8856V33.381c-.0593-2.5316-.1778-5.0042-.1185-7.5358h1.4814c-.0592.0589-.1777 0-.1777.4121-.0593 1.1775-.0593 2.7671-.0593 4.0623v2.767c0 2.0017-.0593 4.2389-.0593 6.2405 0 .3533-.0592 1.2364-.0592 1.6485-.0593.3532.237.4121.237.4121h.5333c.2371 0 .2371 0 .2371-.3532v-.5888-2.9436-1.1186-2.1783c0-.8831 0-1.7073-.0593-2.5904v-1.0597-2.1195c0-.7064.0593-1.7662.0593-2.4726.5333 0 1.0074.0588 1.4222.0588v1.0598c0 1.9428-.1778 3.8856-.1778 5.8284v2.6493c0 1.2363 0 3.0025.0593 4.1799 0 .471.0593.4122.237.4122h.5334c.1185 0 .3555.0588.3555-.3533 0-.7653-.0592-1.6484-.0592-2.3549 0-1.0008 0-2.0606.0592-3.0614 0-.8242.0593-1.6484.0593-2.5315V25.963h.1778c.1777 0 .474 0 .8888-.0589v10.0084c0 1.0597 0 2.6493.0593 3.709 0 .4121.0593.4121.1185.471.1185 0 .4741-.0589.5926-.0589.1778-.0589.2371-.0589.2371-.3532v-2.1195c0-.883 0-1.7661.0592-2.7081.0593-1.7073.0593-3.3558.0593-5.0631 0-2.296-.0593-4.4743 0-6.7704v-1.4129c.2963 0 .5333 0 .7111-.0589.1185-.0589.1778-.1766.237-.2355 0-.1766.0593-.2355-.1185-.2944-.5333-.1766-1.1259-1.2363-1.363-1.825-.5926-1.5896-1.8963-2.0017-2.6074-2.1783-.0592-.2944.0593-1.1186.1185-2.0017.1778-.1766.1778-.3533.1778-.7065 0-.4121-.237-.8831-.6518-.942 0-.6476 0-1.5307.1185-1.9428 0-.2943.4741-.1766.8296-.1766.4741 0 .4741-.4121.0593-.471-.1778-.0588-.6519 0-.8296-.0588-.1186-.4122 0-.5299.1185-1.1775.1185-.94197-.4148-.94197-.5926-.17662.0592.29436-.1778 1.29522-.2371 1.35412-.2963 0-.7703 0-1.0074.1177-.237.1178-.237.4121.0593.4121h.7111c.3556 0 .2963 0 .2963.1178v1.8839c-.4148.1177-1.4222 1.1186-.8889 1.6484.4148.3533.237 1.413.237 2.0606-1.9555.7065-2.4888 2.6493-3.3777 4.1211-.0593.1178-.1778.1766-.2963.1766-.2371.0589-.2371.3533.1185.4121.1778 0 .2963 0 .4741.0589v.0589c-.0593 1.1774 0 2.3549 0 3.4735h-.4741c-.1185 0-.1185.1177-.1185.1766 0 .2355.1185.3532.237.3532h.2963c0 .5299-.0593 1.0009-.0593 1.4719v5.1808c0 .7653.0593 1.4718.0593 2.2372v.8831c0 .5887 0 1.2363.0593 1.825-.0593.7065-.1186 1.5307-.1186 2.1783z" /><path fill="#E87817" d="M30.7556 16.1312c.7703.5887.9481 1.8839.5333 2.6493-.0593.1177-.4741.6476-.7111.7064-.6519.2355-1.363.1766-1.8371-.1177-.4148-.2355-1.0666-1.4718-.8296-2.0017.3556-.8831 1.6593-2.1194 2.8445-1.2363zm3.0222.1766c0 5.1808.1185 10.4205.1185 15.6013v8.831c0 .471-.1185.471-.2963.5298h-.7111c-.1185 0-.2371-.1177-.2371-.5887-.0592-3.8267 0-7.5946 0-11.4214-1.3629.1178-4.0296.2355-5.7481.1767 0 1.6484.0593 3.238.0593 4.8864 0 1.413-.1186 2.8848-.1186 4.3566v1.1186c.0593.3533-.7111.2944-.7703.2944-.0593 0-.2963 0-.2963-.2355v-.3533-2.767c0-1.8839.0592-3.8267.1185-5.7107v-1.4718H25.6c-.1185 0-.237 0-.237-.0589v-.7064c0-.0589.0592-.1178.237-.1178h.3555c0-4.7687-.0592-15.4247-.0592-16.5433-.9482 0-.8296-1.4718-.4148-1.413.4148-.0588 1.6592-.4121 2.1333-.5887-.5333-.1177-1.7778.1766-2.2518 0-.2371-.0589-.2963-.29435-.3556-.52984-.2963-1.00084.0593-.70647.5926-.76535.9481 0 2.0148-.11774 2.963-.05887.2963-.6476.8296-1.58957.7111-2.23717-.1778-.8831-.3556-2.64929-.4741-3.0614-.1185-.70648.3555-.6476.5926-.6476.1778 0 .9481-.05888 1.4222-.11775.5333-.05887 1.8963-.52986 2.1333.05887.1186 0 0 .8831.1778 1.00084.0593.17662.0593.8831-.1185.94197-.237 0-.8889.11775-1.2444 0-.6519 0-1.4223-.05887-2.0149 0 .0593.76535.2371 1.5307.2371 2.06056.2963.29436 1.3037 1.58957 1.4815 2.06055.1185 0 .7111.05888 1.4814 0 .1778-.94197 1.126-.88309 1.0667.05888.4741.05887.7704.11774.8889.35323.0593.11775-.1185 1.29518-.237 2.00168-.0593.6476-.3556.471-.7112.5887-.1777-.0588-.1777 4.1211-.1777 4.4744zm-6.8741 12.3044h2.1333v-.0588c.0593-1.3541-.1185-3.3558 0-4.7099 0-.0588-.0592-.1766.2371-.1766h.7111c.1778 0 .237.0589.237.1766 0 2.4138.0593 3.5913 0 4.7687h2.4889v-3.0025c0-1.825.1185-3.6501.1185-5.4163 0-.6476.0593-8.36 0-8.36-1.9555-.1177-3.7926.1178-5.9852.1767-.237 4.1799-.1777 11.2447.0593 16.6021z" /><path fill="#009140" d="M6.81481 29.2598c-.05926-.8831.77037-1.2363.94815-.0589v5.2397c0 .2355.05926 1.7662.05926 2.0017.05926.1766-.17778.1766-.17778.1766h-.65185c-.11852 0-.17778.0589-.23704-.2355-.11852-1.5307-.17778-5.1808.05926-7.1236zm1.65926-4.2388c-.77037 0-2.01482.0588-2.54815.0588 0-.8831.71111-4.8864.94815-4.7687.65185.471 1.42222 3.709 1.6 4.7099zm-4.56296-3.709c0-.2355.05926-1.1186.11852-1.8251.11851-.7654.11851-.942.35555.2355.11852.8242.35556 1.6484.35556 1.6484-.2963-.0588-.65186-.0588-.82963-.0588zm5.39259-.0589c.23704 0 .47407-.0589.7111 0 0-.3533-.05925-.5887-.05925-.5887-.11852-1.4719-.35556-1.0598-.47407-.4122-.11852.2944-.17778.6476-.17778 1.0009zm.8889 4.4155c.0592 4.7687.1185 9.5374.1778 14.365 0 .1177.1185.1177.1777.1177 0 0 .5334.0589.6519-.0589.1185 0 .0593-.2354.0593-.2943 0-4.7099-.0593-9.4786-.0593-14.1884h.2963c.1778 0 .237-.4121.237-.471 0-.0589-.0592-.0589-.1185-.1177-.1185-.0589-.2963 0-.4148 0-.0593-2.0606 0-3.7679-.3556-5.3575-.1777-.8242-.2963-1.4129-.5333-2.2372-.237-.7653-.59259-.9419-.82962-.7653-.2963.3532-.53334 2.7081-.71111 3.0025-.17778.4121-.2963 2.0017-.35556 2.2372-.05926-.2355-.59259-1.9428-1.00741-2.767.11852-.471 0-1.1775.05926-1.6485.05926-.5887.11852-1.2363-.41481-1.4129.05926-.8831.05926-1.413.05926-1.5307.05926-.0589.35555 0 .53333-.0589.2963.1177.2963-.4121 0-.471-.11852 0-.47407-.0589-.53333-.0589.05926-.471-.05926-.8242-.05926-1.2952 0-.7653-.35556-.7065-.47408 0-.05926.4121.05926.8242.05926 1.2364-.17778 0-.71111.0588-.88889.1177-.29629.1177-.17777.4121 0 .4121h.82963c0 .1178-.05926.8242-.05926 1.884-.17777.2354-.35555.6476-.41481.9419-.17778.7654-.11852 1.2364-.11852 2.0606-.23704 1.0008-.59259 2.9436-.65185 3.3557 0-1.0008-.47408-2.8259-.47408-3.0025-.29629-1.2363-.41481-1.7073-.47407-2.0017-.2963-.8831-.71111-.2355-.88889.6476-.23703 1.0597-.35555 2.0017-.35555 3.0026-.23704 0-.35556 0-.41482.0588.05926.1178.05926.4121.23704.4121.05926 0 .17778.0589.29629.0589C3.08148 26.2573 3.2 30.8494 3.2 35.2649v5.5929c0 .2944 0 .2355.17777.2355.23704.0589.71111.0589.77037.0589.11852 0 .17778 0 .17778-.2944v-1.8251c0-2.6493-.17778-5.2397-.17778-7.889v-3.5323c0-.6476-.05926-1.2952-.05926-2.0017h1.06667c-.05926 2.767-.11852 5.5929-.11852 8.4188 0 2.0017.11852 4.9454.11852 6.947 0 .1767.05926.2355.23704.2355h.59259c.11852 0 .17778-.0588.17778-.1177 0-.4121-.05926-1.7662-.05926-2.0606 0-2.0016-.23704-4.0033-.23704-6.005v-2.767c0-1.2364 0-3.4147.05926-4.5921h2.48889v6.1228c0 1.825.05926 3.6501.05926 5.534 0 .6476.05926 1.0009.05926 1.7662 0 .1178.05926.1178.11852.1178l.59259.0588c.11852 0 .11852 0 .11852-.1177 0-1.1775-.11852-2.5316-.11852-3.709v-2.6493-5.7696-1.354h.94816zm0-.6476h-.94816c0-.2355-.05926-1.7662 0-3.1792h.82966c.0592 1.0597.1185 2.0606.1185 3.1792zm-5.03705.0588H4.14814c-.05926-.8831 0-2.296-.05926-3.1791.17778 0 .47408.0589.71112 0 .17777 1.2952.41481 2.8848.35555 3.1791z" /><path fill="#D9261C" d="M14.9333 11.0093c.1186-.1177.2963-.5887.2963-.7065.5334-1.35406 1.6-1.76617 2.2519-2.11941 0-.70647.0592-1.58957.0592-2.06055.0593-.6476-.2963-.76535-.0592-1.23633.1185-.17662.5333-.47099.5926-.47099.0592-.6476.0592-1.5307-.0593-1.94281.0593-.23549-.4148-.17662-.7111-.23549-.4148 0-.4148-.47098-.0593-.52986h.6519c0-.05887 0-.05887.0593-.05887.1185-.29436 0-.47098 0-1.000839-.0593-.824222.474-.824222.5925-.117746-.0592.294365.0593 1.177455.0593 1.177455.2963 0 .7111 0 .8296.11775.2371.11775.1778.41211-.0592.47098-.0593 0-.2963-.05887-.5334 0-.2963-.05887-.237 0-.237.05888 0 .35324-.0593 1.2952-.0593 1.94281.6519.17662 1.0667 1.05971.5926 1.58957-.237.29436-.1777.17662-.1777.58873 0 .23549-.0593.94197-.0593 1.58957.7111.41211 1.837.70648 2.7852 2.41375.0592-.82418-.0593-1.70727.0593-2.64924.0592-1.00084.7111-.76535.8296 0 .1778 1.11858.237 2.35494.2963 3.47354.1185 0 .3555 0 .5333.0588.1185.0589.1185.3533 0 .471-.1185.1766-.4148.2944-.5333.3533v5.4751h.4148c.1778 0 .1778.1767.1778.2944 0 .1178-.0593.1766-.2371.2355-.1185 0-.237 0-.3555.0589 0 5.2985.0592 14.7771.0592 15.1892v4.2977c0 .471 0 1.2364-.0592 1.7074 0 .1766.1185.4709-.1778.4709h-1.1259c-.1185 0-.1778 0-.1778-.1766-.1185-3.0025 0-4.7098-.0593-7.0059v-3.6501c-2.2518.0589-4.5629.0589-6.8148.0589 0 3.8856-.1778 7.6535-.3555 11.5391 0 .1177-.0593.1766-.1778.2355-.2371.0589-.5926.0589-.6519.0589-.0592 0-.237 0-.237-.2355.1185-3.1792.237-6.3583.1778-9.5375 0-.7064.0592-1.2952.0592-2.0016h-.4148c-.1185 0-.2963.0588-.2963-.1178v-.3532c0-.2355.5334-.1766.7111-.1766.0593-3.2969.1186-6.7116 0-10.0673h-.2963c-.0592 0-.2963 0-.3555-.4121 0-.0589 0-.2355.1185-.2355h.5333c0-2.4727 0-4.5921-.0592-5.5341-.1185-1.5307-.2371-2.70815.1185-3.82674.1778-.58873.6518-.11775.7704.41211.474.52986.6518 1.47183.7703 2.11943zm4.0889 11.4214c0-1.413 1.126-2.0017 1.2445-.1767 0 2.1783-.1186 4.0034-.0593 6.4761.3556 0 1.0074 0 1.363-.0589.0592-1.9428.1185-4.3566.1778-6.5938 0-1.2363.0592-2.3549.0592-3.5912-2.2518.1177-4.6815 0-6.9333.1177.0592 3.3558-.1185 6.7704-.1185 10.1262h1.3037v-1.7073-5.1809c.1185-.9419.3555-1.0008.6518-.9419.2963.0588.5333.2943.5333 1.1186 0 1.5306.0593 4.5332.0593 6.0639v.7064h1.6v-.6476c-.0593-.8242.1185-4.7687.1185-5.7106zM17.363 32.6746c.0592-.942-.2963-1.3541-.5926-1.2952-.2371 0-.6519.2355-.7704 1.1774 0 3.709-.1185-.0589-.1185 5.3575v1.825c0 .2355.0592.2944.1778.2944h1.0074c.1777 0 .237-.0589.237-.2355v-.5887s.1185-4.9454.0593-6.5349zm2.7851.1766c.0593-.942-.3555-1.5307-.7703-1.413-.2371.0589-.5926.4121-.6519 1.2952 0 1.8251-.0592 5.2397-.0592 6.9471-.0593.3532.237.3532.3555.3532.1778 0 .9482.0589 1.0667.0589.1185 0 .1778 0 .1185-.2355v-.7065c0-.8831 0-5.3574-.0593-6.2994zm-.8296-17.5442c0-.5887.1185-.8831.4741-.8831.2963 0 .5333.4121.5333 1.0009-.0592 1.0597-.0592 1.7662-.1185 2.4726h1.6593c.0592-2.0605.0592-3.5323.0592-3.709v-1.7661h-.5333c-2.5482.2354-4.6222.2354-6.8148-.1767.0592.8831.2963 3.0614.2963 5.6518h1.4222c.0593-.8242.1778-1.7661.1778-2.6492 0-.6476.2963-1.1186.5333-1.1186.2963 0 .4148.3532.4741.9419 0 .7654-.0593 2.0017-.0593 2.8259h1.8371c0-.8242.0592-1.7661.0592-2.5904zm-3.1407-3.709h4.1481c-.0592-.5887-.4148-1.4718-.8889-1.88391-.6518-.58873-1.6-.70647-2.1333-.35323-.4741.29436-.7111.64764-.8889 1.17744-.0592.2355-.1778.8831-.237 1.0597z" /><path fill="#0082C9" d="M39.8222 25.2565c.0593-1.0008-.8296-1.4129-1.0666-.1177-.1186 1.0008-.1778 2.296-.0593 3.238 0 .1766.1778.1766.2963.1766h.5926c.0592 0 .237 0 .237-.1766-.0592-.7065-.1185-2.3549 0-3.1203zm.9482-.0589c-.0593-.8831.8889-1.2363 1.0666-.0588v3.4146c.0593.1766-.1777.1766-.1777.1766-.1778 0-.4741.0589-.7111 0-.1186-.1177-.0593-.1177-.1186-.5887 0-.4121-.0592-.2944-.0592-.7065v-.5298-1.7074zm2.2518-6.5937c-.0592 1.4718-.0592 3.9445 0 5.3574 0 1.1775-.0592 2.3549 0 3.5324v5.3574c-1.3629 0-4.0889 0-5.3926.0589-.0592-1.4718-.1185-2.8259-.1185-4.2977 0-1.3541-.0592-2.6493-.0592-4.0034 0-1.7662 0-4.4155-.0593-6.1817h1.1852c.237 0 .4741-.0588.5333-.1766.5926-.7064 1.1852-1.8839 2.1926.0589.1778.2944.3556.3532.6519.3532.2963.0589.6518 0 1.0666-.0588zm1.8371-.7654c-.2963-.1177-.5926-.4121-.7704-.7065.0593-.6476.0593-1.4718.0593-1.7661.0592-.8831-.6519-.8243-.7704-.1767l-.1185.6476c-1.126-2.2371-1.4223-4.1211-1.3037-6.82923.1777-.23549.237-.6476.237-1.00084-.1185-1.05972-.8889-.94197-1.3037-1.05972 0-.11774.1185-2.35492.1778-2.47266 0-.05888.474-.11775.7111-.11775.5333-.05887.4148-.35324-.0593-.52986-.1185-.05887-.4148 0-.5926.05888-.0592-.05888-.0592-.29437-.0592-.76535-.0593-.6476-.4741-1.05972-.5926-.05887-.0593.52985-.0593.6476 0 .82422-.4741.05887-.5334 0-.8297.05887-.5333.05887-.2963.47098.1778.52986.2371.05887.5926.05887.6519 0 .0592.11774-.1185 2.29604-.0593 2.59041-.6518.23549-.7704 1.23633-.7704 2.00168-.0592 2.88476-.8888 4.59206-2.3111 7.18246l-.1185-1.0597c0-.8831-.7111-.8242-.7111-.1766v2.3549c-.1778.2355-.4148.471-.6518.5888-.1186.0588-.1186.0588-.1186.1766 0 .1766.0593.2355.0593.2943 0 0 .0593.0589.1185.0589h.5926c0 .942.0593 2.3549 0 3.3558 0 1.5307 0 3.0614-.0593 4.5921 0 1.9428-.0592 3.8267-.0592 5.7695V40.8579c0 .3532.1185.3532.4148.4121.2963.0588.5926.0588.7111 0 .1185 0 .2963 0 .2371-.3533 0-.5298-.0593-4.2977-.0593-4.8276 0-.8242-.0593-1.7073-.0593-2.5315 1.1852 0 3.6741.0589 5.3926.0589v6.1228c0 .3532.1185.4121.1778.471.1778 0 .5333.0588.7704.0588.0592 0 .2963.0589.2963-.3532v-.8242c0-.8243-.0593-4.0034-.1185-5.4163h.4148c.1777 0 .2963 0 .2963-.0589 0-.1178.0592-.3533.0592-.471 0-.1177-.1185-.1177-.237-.1177h-.4741c0-1.7662-.0592-3.5913-.1185-5.3575v-3.5324c0-1.6484.1185-3.8267.1185-5.4752.237-.0588.4741-.1177.6519-.1177.1185-.2944.237-.6476 0-.7065zm-4.1482-7.5946c.237 3.1791 1.0667 5.6518 2.3704 7.5357h-.5333c-.1186 0-.1186-.0588-.1778-.1766-.5334-1.5307-2.8445-1.825-3.7334.1178-.2963 0-.2963.0588-1.0074 0 .9482-1.1775 2.3704-4.7687 2.6074-7.3003 0-.4121.4741-.52984.4741-.1766z" /></svg>