<svg xmlns="http://www.w3.org/2000/svg" fill="none" viewBox="0 0 133 128"><path fill="#0082C9" d="M51.622 13.327H81.82v30.527H51.622V13.327zm5.727 5.727v19.074h18.744V19.054H57.35z"/><path fill="#E31E24" d="M15.348 49.622h30.527V79.82H15.348V49.622zm5.726 5.727v18.744H40.15V55.35H21.074z"/><path fill="#B02482" d="M87.587 23.359h20.496v20.475H87.587V23.359zm5.727 5.706v9.084h9.043v-9.084h-9.043z"/><path fill="#009846" d="M25.359 85.608h20.495v20.475H25.36V85.608zm5.726 5.706v9.084h9.043v-9.084h-9.043z"/><path fill="#EF7F1A" d="M2 0v43.855h43.875V0H2zm38.149 38.128H7.726V5.706H40.15v32.422zm11.288 54.669a35.141 35.141 0 001.112 4.676v-.02c6.16 1.874 12.627 1.977 19.095 1.07-1.112-2.121-1.73-5.046-1.895-7.765-5.768 2.471-12.483 2.801-18.312 2.039zM130 38.046h-16.685l-.02.02v5.727h10.958v37.633H113.48c-4.099 0-8.219.31-12.174 1.628-10.69 3.872-14.77 9.393-20.701 18.127-3.873 5.705-8.672 10.587-14.296 14.831a31.201 31.201 0 004.017 2.368c6.324-3.522 13.1-8.569 18.024-13.986 7.291.062 12.709-1.854 18.271-4.429 5.417-2.513 11.658-4.16 17.653-4.284v26.469h-78.44v-10.959h-5.727v16.685H130v-89.83zm-42.783 49.93c4.222-4.016 9.33-6.323 14.748-8.28l-.02-.02c-.042-2.102-.268-4.738-.618-6.633a33.69 33.69 0 013.913 2.43c-.164-6.694-5.355-14.748-10.052-18.126.05-.184.1-.356.149-.525.26-.892.488-1.677.366-3.41-2.822.268-3.934.948-5.479 2.04-5.87.597-9.166 1.689-13.492 3.79l.02 1.854c-.02 1.73.742 2.286 2.287 2.286h2.595c2.699 0 2.513 3.708 0 3.687l-4.614-.041v2.286c.041 1.175.721 1.896 1.916 1.896h5.726c-6.014 3.254-12.936 7.786-15.655 16.355 1.195-.536 2.637-.906 4.14-1.133-1.132 4.964-.246 10.114 3.42 15.222.474-.681.945-1.366 1.416-2.052 2.808-4.087 5.636-8.204 9.234-11.625z"/></svg>
